#!OML:ASF H:\GeneralSubjects\Female5\Project 1\Capture day 1\Session 1\Female5.ASF
:FULLY-SPECIFIED
:DEGREES
220
root 30.4869 15.7835 3.86212 -361.261 77.752 -362.715
lowerback 12.2325 0.295746 -5.80067
upperback -11.5488 0.000899172 3.11805
thorax -20.6645 1.36259 6.97559
lowerneck -11.5367 -1.7395 1.03165
upperneck 43.2603 -0.76987 -0.617353
head 18.0697 0.531314 -0.369537
rclavicle -3.43897e-014 -2.62396e-014
rhumerus -69.2516 20.4069 -80.8849
rradius 54.8802
rwrist -7.9847
rhand -26.4413 -21.5328
rfingers 7.12502
rthumb 0.11954 -51.5125
lclavicle -3.43897e-014 -2.62396e-014
lhumerus -73.9832 -10.3999 96.1587
lradius 72.498
lwrist -5.90996
lhand -31.9399 33.5219
lfingers 7.12502
lthumb -5.19069 63.4383
rfemur -2.82936 2.98083 28.4203
rtibia 25.782
rfoot -1.49617 1.00196
rtoes -15.0397
lfemur -41.063 -24.9496 -13.57
ltibia 33.1118
lfoot 3.56247 18.2398
ltoes -60.186
221
root 30.8722 15.8182 3.81625 -356.967 75.1411 -357.314
lowerback 13.2763 0.992325 -7.1122
upperback -11.6649 0.470833 2.57818
thorax -21.0884 1.69215 6.88863
lowerneck -11.3025 -1.80413 1.17033
upperneck 43.233 -1.22606 0.0363914
head 17.9914 0.451494 -0.17021
rclavicle 3.97569e-015 1.15295e-014
rhumerus -68.9475 19.8607 -81.4203
rradius 56.2503
rwrist -8.28986
rhand -25.6169 -21.0905
rfingers 7.12502
rthumb 0.915761 -51.0683
lclavicle 3.97569e-015 1.15295e-014
lhumerus -75.696 -9.60858 94.2771
lradius 72.386
lwrist -6.13066
lhand -31.5322 33.1535
lfingers 7.12502
lthumb -4.79707 63.0792
rfemur -0.634446 4.36342 26.6627
rtibia 25.4601
rfoot -0.245448 0.667866
rtoes -14.6205
lfemur -40.6447 -28.9393 -10.4333
ltibia 27.7973
lfoot 6.5673 21.1149
ltoes -56.1187
222
root 31.314 15.8473 3.76782 -357.579 72.5438 -356.825
lowerback 13.7923 1.56555 -7.14994
upperback -11.4637 1.13808 2.23092
thorax -21.2875 1.93609 6.28892
lowerneck -11.0727 -1.9023 1.45195
upperneck 43.0482 -1.68923 0.446195
head 17.8185 0.348706 -0.115919
rclavicle -2.98177e-014 -1.11319e-014
rhumerus -68.8513 19.5639 -82.307
rradius 57.48
rwrist -9.07619
rhand -24.9567 -20.5073
rfingers 7.12502
rthumb 1.55343 -50.4814
lclavicle -2.98177e-014 -1.11319e-014
lhumerus -77.3664 -8.94706 92.3593
lradius 72.4588
lwrist -5.88579
lhand -31.3806 33.1696
lfingers 7.12502
lthumb -4.65063 63.0986
rfemur 2.06274 5.16832 25.9408
rtibia 24.8757
rfoot 0.483817 0.982968
rtoes -15.9719
lfemur -40.0142 -32.7727 -6.71537
ltibia 23.6381
lfoot 7.63442 26.3028
ltoes -51.6927
223
root 31.759 15.8586 3.72727 -359.744 69.7602 -358.103
lowerback 14.1936 2.14729 -6.631
upperback -11.3187 1.99818 2.04982
thorax -21.4896 2.19915 5.49025
lowerneck -10.8362 -1.97671 1.69941
upperneck 42.7566 -2.12166 0.896246
head 17.587 0.25146 -0.033534
rclavicle 7.33515e-014 1.19271e-014
rhumerus -68.8405 19.4672 -83.4384
rradius 58.5034
rwrist -10.1723
rhand -24.6956 -19.9475
rfingers 7.12502
rthumb 1.80557 -49.9196
lclavicle 7.33515e-014 1.19271e-014
lhumerus -78.8722 -8.59062 90.6174
lradius 72.4255
lwrist -5.01867
lhand -31.5797 33.2168
lfingers 7.12502
lthumb -4.84293 63.1415
rfemur 4.28503 6.12136 25.9426
rtibia 24.8644
rfoot 0.860384 1.0037
rtoes -16.5684
lfemur -39.0767 -34.8466 -3.62273
ltibia 21.1735
lfoot 7.50229 29.8179
ltoes -50.1663
224
root 32.2125 15.8525 3.68533 -360.984 66.8846 -358.61
lowerback 14.3446 2.71934 -6.24069
upperback -11.1743 2.83444 1.87396
thorax -21.5033 2.46447 4.77627
lowerneck -10.7805 -2.04672 1.7637
upperneck 42.4379 -2.50789 1.35431
head 17.3967 0.13789 0.0896944
rclavicle -6.4605e-015 -1.98785e-015
rhumerus -68.6908 19.6392 -84.6616
rradius 59.2728
rwrist -11.1523
rhand -24.6939 -19.4461
rfingers 7.12502
rthumb 1.8072 -49.4181
lclavicle -6.4605e-015 -1.98785e-015
lhumerus -80.0425 -8.39901 89.1258
lradius 72.2429
lwrist -3.73133
lhand -31.881 33.2686
lfingers 7.12502
lthumb -5.13381 63.1864
rfemur 6.04877 6.99728 25.615
rtibia 25.4226
rfoot 1.33734 0.902104
rtoes -14.8721
lfemur -37.1311 -35.224 -2.73944
ltibia 20.2163
lfoot 9.1525 31.4828
ltoes -47.7021
225
root 32.6706 15.8447 3.64361 -360.979 63.7356 -358.463
lowerback 13.7843 3.32162 -6.12429
upperback -11.1682 3.69987 1.69347
thorax -21.2349 2.79022 4.22912
lowerneck -10.7258 -2.11828 1.76747
upperneck 41.8966 -2.70298 1.35787
head 17.07 0.0129356 0.0414273
rclavicle -5.66536e-015 -1.8487e-014
rhumerus -68.5005 20.1087 -86.0049
rradius 59.9551
rwrist -12.371
rhand -25.0536 -19.0227
rfingers 7.12502
rthumb 1.4598 -48.9975
lclavicle -5.66536e-015 -1.8487e-014
lhumerus -80.9798 -8.27035 87.908
lradius 72.0651
lwrist -2.59189
lhand -32.202 33.8247
lfingers 7.12502
lthumb -5.44374 63.7348
rfemur 6.7791 8.31787 24.9191
rtibia 26.4394
rfoot 1.84997 0.8569
rtoes -11.4751
lfemur -35.2648 -35.5187 -2.10762
ltibia 19.5696
lfoot 8.71336 33.0247
ltoes -44.6318
226
root 33.1168 15.8149 3.58881 -361.139 60.2812 -358.593
lowerback 13.3953 4.00249 -5.81586
upperback -11.2264 4.72652 1.59985
thorax -21.1694 3.1765 3.6216
lowerneck -10.626 -2.14267 2.01094
upperneck 41.4716 -2.85819 1.31958
head 16.7993 -0.0543927 -0.0569091
rclavicle 3.55825e-014 -6.55989e-015
rhumerus -68.4149 20.3038 -86.9818
rradius 60.8566
rwrist -13.2613
rhand -25.6769 -18.5599
rfingers 7.12502
rthumb 0.857804 -48.5379
lclavicle 3.55825e-014 -6.55989e-015
lhumerus -81.7569 -8.13751 86.9783
lradius 71.9015
lwrist -1.98337
lhand -32.2399 34.7811
lfingers 7.12502
lthumb -5.48037 64.6902
rfemur 7.21627 10.3478 24.4686
rtibia 27.475
rfoot 2.22423 0.716949
rtoes -8.2446
lfemur -33.0617 -35.8913 -1.63029
ltibia 19.5059
lfoot 7.96899 34.3005
ltoes -45.549
227
root 33.5729 15.7618 3.52637 -360.872 56.8755 -358.203
lowerback 13.1034 4.66596 -5.58881
upperback -11.0674 5.6894 1.41439
thorax -21.4011 3.54688 2.99601
lowerneck -10.5804 -2.18683 2.27155
upperneck 41.1735 -3.06063 1.32247
head 16.6177 -0.126571 -0.144483
rclavicle -1.20762e-014 -2.48481e-015
rhumerus -68.2922 19.9662 -87.4002
rradius 61.9148
rwrist -12.83
rhand -25.7301 -18.3007
rfingers 7.12502
rthumb 0.806389 -48.279
lclavicle -1.20762e-014 -2.48481e-015
lhumerus -82.368 -8.15996 86.4239
lradius 71.6095
lwrist -1.78016
lhand -32.233 35.3759
lfingers 7.12502
lthumb -5.47371 65.2852
rfemur 7.92853 12.7122 23.7694
rtibia 28.2666
rfoot 2.17937 0.469098
rtoes -6.90087
lfemur -29.6452 -33.2399 -4.50532
ltibia 21.4678
lfoot -7.45432 28.1536
ltoes -26.7123
228
root 34.023 15.6976 3.45663 -361.283 53.7413 -358.859
lowerback 12.9961 5.15512 -4.56777
upperback -11.2917 6.60452 1.34729
thorax -21.5843 3.788 2.04598
lowerneck -10.6208 -2.2849 2.22675
upperneck 41.0463 -3.36186 1.58032
head 16.5676 -0.244037 -0.0777859
rclavicle -8.41605e-014 -4.22417e-014
rhumerus -68.0852 19.6079 -87.8002
rradius 62.7706
rwrist -11.9832
rhand -25.4086 -18.4664
rfingers 7.12502
rthumb 1.11692 -48.4432
lclavicle -8.41605e-014 -4.22417e-014
lhumerus -82.8644 -8.32384 86.2213
lradius 71.1413
lwrist -1.8973
lhand -32.6379 35.4383
lfingers 7.12502
lthumb -5.86464 65.3371
rfemur 8.23969 14.8889 23.6375
rtibia 29.474
rfoot 1.64662 0.246873
rtoes -10.9273
lfemur -27.6177 -33.8336 -4.44397
ltibia 23.099
lfoot -17.885 14.9578
ltoes -14.1584
229
root 34.4701 15.6133 3.37603 -361.573 50.7488 -359.389
lowerback 13.2102 5.5469 -3.38425
upperback -11.8074 7.41303 1.25685
thorax -21.7614 3.93629 0.953791
lowerneck -10.5068 -2.38457 2.09977
upperneck 40.9151 -3.69975 2.01244
head 16.4874 -0.365112 0.0769391
rclavicle 7.33764e-014 9.14409e-015
rhumerus -67.9361 19.2188 -88.3063
rradius 63.4175
rwrist -11.5229
rhand -25.218 -18.2321
rfingers 7.12502
rthumb 1.30105 -48.2079
lclavicle 7.33764e-014 9.14409e-015
lhumerus -83.184 -8.41871 86.1716
lradius 70.3874
lwrist -2.44328
lhand -32.8186 35.5526
lfingers 7.12502
lthumb -6.03907 65.4465
rfemur 8.40795 16.839 23.2912
rtibia 30.5714
rfoot 1.1393 0.108677
rtoes -15.3956
lfemur -24.9362 -30.4478 -6.98822
ltibia 24.919
lfoot -16.122 3.23469
ltoes -21.5039
230
root 34.8809 15.5142 3.28043 -361.761 47.1476 -360.445
lowerback 13.6389 6.08294 -1.90649
upperback -12.3408 8.52601 1.13785
thorax -22.5822 4.15305 -0.460207
lowerneck -10.4222 -2.52629 2.306
upperneck 40.7646 -4.15917 2.33889
head 16.397 -0.501994 0.103871
rclavicle 3.84027e-014 3.27001e-014
rhumerus -67.8476 18.1312 -88.7043
rradius 63.9987
rwrist -10.6611
rhand -24.8862 -17.795
rfingers 7.12502
rthumb 1.62146 -47.7686
lclavicle 3.84027e-014 3.27001e-014
lhumerus -83.2625 -8.75412 86.2356
lradius 69.3009
lwrist -3.05492
lhand -32.7239 35.7563
lfingers 7.12502
lthumb -5.94767 65.6528
rfemur 7.20884 19.3928 23.1322
rtibia 32.264
rfoot 0.669486 0.180182
rtoes -13.9782
lfemur -23.139 -28.8877 -7.17113
ltibia 25.4914
lfoot -10.9832 -6.65061
ltoes -43.4606
231
root 35.2585 15.4275 3.18403 -360.379 43.8645 -360.163
lowerback 13.8283 6.55677 -1.652
upperback -12.9134 9.23372 0.78205
thorax -23.4183 4.34579 -1.3257
lowerneck -11.5619 -2.69462 1.93797
upperneck 41.7156 -4.92136 3.48912
head 17.2991 -0.669314 0.562397
rclavicle -3.07744e-014 -1.4971e-014
rhumerus -67.4639 16.7014 -88.7806
rradius 64.4512
rwrist -9.03655
rhand -24.6701 -17.6039
rfingers 7.12502
rthumb 1.83021 -47.5758
lclavicle -3.07744e-014 -1.4971e-014
lhumerus -82.8488 -9.10403 86.531
lradius 67.9233
lwrist -3.57968
lhand -32.8928 35.8074
lfingers 7.12502
lthumb -6.11073 65.6993
rfemur 5.15963 21.7621 21.4674
rtibia 33.9879
rfoot -0.0816659 0.19819
rtoes -9.7857
lfemur -22.0595 -26.7732 -8.50891
ltibia 25.7526
lfoot -1.89246 -11.6648
ltoes -62.1655
232
root 35.631 15.3336 3.0758 -358.797 40.8693 -359.772
lowerback 13.9792 6.9009 -1.34315
upperback -13.3929 9.74519 0.325669
thorax -24.0507 4.42551 -2.26593
lowerneck -12.6603 -2.92288 1.74142
upperneck 41.9962 -5.7125 4.27811
head 17.8294 -0.90718 0.809924
rclavicle 1.33335e-013 5.66536e-014
rhumerus -66.9291 15.1582 -88.7127
rradius 64.8377
rwrist -7.44934
rhand -25.1327 -16.8236
rfingers 7.12502
rthumb 1.38337 -46.7989
lclavicle 1.33335e-013 5.66536e-014
lhumerus -82.0217 -9.62192 87.0833
lradius 66.3338
lwrist -4.00421
lhand -32.6929 36.002
lfingers 7.12502
lthumb -5.91772 65.8993
rfemur 2.81769 23.5525 19.1902
rtibia 35.5179
rfoot -0.976426 -0.136984
rtoes -3.92072
lfemur -21.3177 -23.7547 -10.4247
ltibia 26.0642
lfoot 7.75093 -9.87402
ltoes -71.9441
